<?xml version="1.0" encoding="UTF-8"?>
<svg id="Capa_1" data-name="Capa 1" xmlns="http://www.w3.org/2000/svg" viewBox="0 0 595.28 841.89">
  <defs>
    <style>
      .cls-1 {
        fill: #fff;
      }

      .cls-2, .cls-3, .cls-4 {
        stroke: #1d1d1b;
        stroke-miterlimit: 10;
      }

      .cls-3 {
        stroke-width: 10px;
      }

      .cls-3, .cls-4 {
        fill: #1d1d1b;
      }
    </style>
  </defs>
  <polygon class="cls-4" points="595.28 0 0 0 0 841.89 193.33 841.89 195.09 841.05 237.02 841.05 237.02 801.25 195.09 801.25 137.91 772.39 137.91 606.48 195.09 579.14 237.02 579.14 237.02 538.6 195.98 538.6 138.8 509.74 138.8 343.83 195.98 316.49 237.91 316.49 237.91 276.69 195.98 276.69 138.8 247.83 138.8 81.92 195.98 54.57 237.91 54.57 237.91 .69 258.86 .27 333.57 .27 353.45 .69 353.45 54.57 399.89 54.57 454.15 81.92 454.15 247.83 399.89 276.69 353.45 276.69 353.45 316.49 399.89 316.49 454.15 343.83 454.15 509.74 399.89 538.6 353.45 538.6 353.45 579.14 399 579.14 453.26 606.48 453.26 772.39 399 801.25 352.56 801.25 352.56 841.05 399 841.05 400.67 841.89 595.28 841.89 595.28 0"/>
  <polygon class="cls-2" points="381.62 102.5 353.45 82.67 353.45 101.42 333.57 118.94 258.86 118.94 237.91 101.42 237.91 84.75 211.33 102.5 211.33 227.63 237.91 246.36 237.91 228.82 258.86 206.9 333.57 206.9 353.45 228.82 353.45 248.55 381.62 227.63 381.62 102.5"/>
  <polygon class="cls-2" points="380.73 627.06 352.56 607.23 352.56 625.98 332.68 643.5 257.97 643.5 237.02 625.98 237.02 609.31 210.44 627.06 210.44 752.19 237.02 770.92 237.02 753.38 257.97 731.46 332.68 731.46 352.56 753.38 352.56 773.11 380.73 752.19 380.73 627.06"/>
  <polygon class="cls-2" points="258.86 471.48 333.57 471.48 353.45 488.4 353.45 510.46 381.62 489.54 381.62 364.41 353.45 344.58 353.45 361.8 333.57 384.93 258.86 384.93 237.91 361.8 237.91 346.66 211.33 364.41 211.33 489.54 237.91 508.27 237.91 488.4 258.86 471.48"/>
  <polygon class="cls-1" points="211.33 227.63 211.33 102.5 237.91 84.75 237.91 54.57 195.98 54.57 138.8 81.92 138.8 247.83 195.98 276.69 237.91 276.69 237.91 246.36 211.33 227.63"/>
  <polygon class="cls-1" points="381.62 102.5 381.62 227.63 353.45 248.55 353.45 276.69 399.89 276.69 454.15 247.83 454.15 81.92 399.89 54.57 353.45 54.57 353.45 82.67 381.62 102.5"/>
  <polygon class="cls-1" points="353.45 .69 333.57 .27 258.86 .27 237.91 .69 237.91 54.57 353.45 54.57 353.45 .69"/>
  <polygon class="cls-1" points="258.86 118.94 333.57 118.94 353.45 101.42 353.45 82.67 352.32 81.88 242.21 81.88 237.91 84.75 237.91 101.42 258.86 118.94"/>
  <polygon class="cls-1" points="242.21 81.88 352.32 81.88 353.45 82.67 353.45 54.57 237.91 54.57 237.91 84.75 242.21 81.88"/>
  <polygon class="cls-1" points="381.62 364.41 381.62 489.54 353.45 510.46 353.45 538.6 399.89 538.6 454.15 509.74 454.15 343.83 399.89 316.49 353.45 316.49 353.45 344.58 381.62 364.41"/>
  <polygon class="cls-1" points="237.91 525.23 237.91 508.27 211.33 489.54 211.33 364.41 237.91 346.66 237.91 316.49 195.98 316.49 138.8 343.83 138.8 509.74 195.98 538.6 237.02 538.6 237.02 525.25 237.91 525.23"/>
  <rect class="cls-1" x="352.56" y="538.6" width=".9" height="40.53"/>
  <polygon class="cls-1" points="352.32 511.3 353.45 510.46 353.45 488.4 333.57 471.48 258.86 471.48 237.91 488.4 237.91 508.27 242.21 511.3 352.32 511.3"/>
  <polygon class="cls-1" points="352.32 511.3 242.21 511.3 237.91 508.27 237.91 525.23 257.97 524.83 332.68 524.83 352.56 525.25 352.56 538.6 353.45 538.6 353.45 510.46 352.32 511.3"/>
  <polygon class="cls-1" points="333.57 206.9 258.86 206.9 237.91 228.82 237.91 246.36 242.21 249.39 352.32 249.39 353.45 248.55 353.45 228.82 333.57 206.9"/>
  <polygon class="cls-1" points="258.86 384.93 333.57 384.93 353.45 361.8 353.45 344.58 352.32 343.79 242.21 343.79 237.91 346.66 237.91 361.8 258.86 384.93"/>
  <rect class="cls-1" x="237.91" y="276.69" width="115.54" height="39.79"/>
  <polygon class="cls-1" points="353.45 248.55 352.32 249.39 242.21 249.39 237.91 246.36 237.91 276.69 353.45 276.69 353.45 248.55"/>
  <polygon class="cls-1" points="242.21 343.79 352.32 343.79 353.45 344.58 353.45 316.49 237.91 316.49 237.91 346.66 242.21 343.79"/>
  <polygon class="cls-1" points="352.56 592.5 352.56 607.23 380.73 627.06 380.73 752.19 352.56 773.11 352.56 801.25 399 801.25 453.26 772.39 453.26 606.48 399 579.14 353.45 579.14 353.45 592.49 352.56 592.5"/>
  <polygon class="cls-1" points="210.44 752.19 210.44 627.06 237.02 609.31 237.02 579.14 195.09 579.14 137.91 606.48 137.91 772.39 195.09 801.25 237.02 801.25 237.02 770.92 210.44 752.19"/>
  <polygon class="cls-1" points="352.56 592.5 353.45 592.49 353.45 579.14 352.56 579.14 352.56 592.5"/>
  <rect class="cls-1" x="237.02" y="538.6" width=".9" height="40.53"/>
  <polygon class="cls-1" points="237.91 525.23 237.02 525.25 237.02 538.6 237.91 538.6 237.91 525.23"/>
  <rect class="cls-1" x="237.91" y="538.6" width="114.64" height="40.53"/>
  <polygon class="cls-1" points="237.91 579.14 237.91 592.49 258.86 592.76 333.57 592.76 352.56 592.5 352.56 579.14 237.91 579.14"/>
  <rect class="cls-1" x="237.02" y="801.25" width="115.54" height="39.79"/>
  <polygon class="cls-1" points="332.68 731.46 257.97 731.46 237.02 753.38 237.02 770.92 241.31 773.95 351.43 773.95 352.56 773.11 352.56 753.38 332.68 731.46"/>
  <polygon class="cls-1" points="352.56 773.11 351.43 773.95 241.31 773.95 237.02 770.92 237.02 801.25 352.56 801.25 352.56 773.11"/>
  <polygon class="cls-3" points="237.33 306.89 278.04 319.32 284.04 297.32 315.6 313.46 332.02 297.32 363.04 311.32 389.72 304.06 389.72 292.73 360.04 300.32 325.85 284.16 313.53 301.74 275.43 284.16 267.59 301.74 241.04 288.32 237.33 306.89"/>
  <g>
    <polygon class="cls-1" points="258.86 592.76 237.91 592.49 237.91 579.14 237.02 579.14 237.02 609.31 241.31 606.44 351.43 606.44 352.56 607.23 352.56 592.5 333.57 592.76 258.86 592.76"/>
    <polygon class="cls-3" points="275.85 571.26 307.41 555.13 313.41 577.13 354.12 564.69 350.41 546.13 323.86 559.55 316.02 541.97 277.92 559.55 265.59 541.97 231.41 558.13 201.72 550.53 201.72 561.87 228.41 569.13 259.43 555.13 275.85 571.26"/>
  </g>
</svg>